<?xml version="1.0" encoding="UTF-8" standalone="no"?>
<!DOCTYPE svg PUBLIC "-//W3C//DTD SVG 1.1//EN"
 "http://www.w3.org/Graphics/SVG/1.1/DTD/svg11.dtd">
<!-- Generated by graphviz version 13.1.0 (20250701.0955)
 -->
<!-- Title: fm24clxx_basic_init Pages: 1 -->
<svg width="263pt" height="504pt"
 viewBox="0.00 0.00 263.00 504.00" xmlns="http://www.w3.org/2000/svg" xmlns:xlink="http://www.w3.org/1999/xlink">
<g id="graph0" class="graph" transform="scale(1 1) rotate(0) translate(4 500)">
<title>fm24clxx_basic_init</title>
<!-- Node1 -->
<g id="Node000001" class="node">
<title>Node1</title>
<g id="a_Node000001"><a xlink:title="basic example init">
<polygon fill="#999999" stroke="#666666" points="102.25,-252 0,-252 0,-232 102.25,-232 102.25,-252"/>
<text xml:space="preserve" text-anchor="middle" x="51.12" y="-238.5" font-family="Helvetica,sans-Serif" font-size="10.00">fm24clxx_basic_init</text>
</a>
</g>
</g>
<!-- Node2 -->
<g id="Node000002" class="node">
<title>Node2</title>
<g id="a_Node000002"><a xlink:href="group__fm24clxx__base__driver.html#ga0d28251748a6c8ad983fef939476926c" target="_top" xlink:title="initialize the chip">
<polygon fill="white" stroke="#666666" points="233.38,-496 159.62,-496 159.62,-476 233.38,-476 233.38,-496"/>
<text xml:space="preserve" text-anchor="middle" x="196.5" y="-482.5" font-family="Helvetica,sans-Serif" font-size="10.00">fm24clxx_init</text>
</a>
</g>
</g>
<!-- Node1&#45;&gt;Node2 -->
<g id="edge1_Node000001_Node000002" class="edge">
<title>Node1&#45;&gt;Node2</title>
<g id="a_edge1_Node000001_Node000002"><a xlink:title=" ">
<path fill="none" stroke="#63b8ff" d="M53.02,-252.44C56.6,-287.85 73.09,-404.72 138.25,-467 141.35,-469.96 144.92,-472.46 148.73,-474.57"/>
<polygon fill="#63b8ff" stroke="#63b8ff" points="147.29,-477.76 157.84,-478.67 150.16,-471.38 147.29,-477.76"/>
</a>
</g>
</g>
<!-- Node3 -->
<g id="Node000003" class="node">
<title>Node3</title>
<g id="a_Node000003"><a xlink:href="group__fm24clxx__interface__driver.html#gaa9fe42bb9e2227c02a0be642b98a72c2" target="_top" xlink:title="interface print format data">
<polygon fill="white" stroke="#666666" points="245.75,-458 147.25,-458 147.25,-426 245.75,-426 245.75,-458"/>
<text xml:space="preserve" text-anchor="start" x="155.25" y="-444.5" font-family="Helvetica,sans-Serif" font-size="10.00">fm24clxx_interface</text>
<text xml:space="preserve" text-anchor="middle" x="196.5" y="-432.5" font-family="Helvetica,sans-Serif" font-size="10.00">_debug_print</text>
</a>
</g>
</g>
<!-- Node1&#45;&gt;Node3 -->
<g id="edge2_Node000001_Node000003" class="edge">
<title>Node1&#45;&gt;Node3</title>
<g id="a_edge2_Node000001_Node000003"><a xlink:title=" ">
<path fill="none" stroke="#63b8ff" d="M54.49,-252.16C61.82,-281.59 86.83,-367.88 138.25,-417 138.99,-417.7 139.75,-418.39 140.53,-419.06"/>
<polygon fill="#63b8ff" stroke="#63b8ff" points="138.17,-421.67 148.33,-424.68 142.26,-416 138.17,-421.67"/>
</a>
</g>
</g>
<!-- Node4 -->
<g id="Node000004" class="node">
<title>Node4</title>
<g id="a_Node000004"><a xlink:href="group__fm24clxx__interface__driver.html#ga6e754c8b0081485601773261d25b7f01" target="_top" xlink:title="interface delay ms">
<polygon fill="white" stroke="#666666" points="245.75,-408 147.25,-408 147.25,-376 245.75,-376 245.75,-408"/>
<text xml:space="preserve" text-anchor="start" x="155.25" y="-394.5" font-family="Helvetica,sans-Serif" font-size="10.00">fm24clxx_interface</text>
<text xml:space="preserve" text-anchor="middle" x="196.5" y="-382.5" font-family="Helvetica,sans-Serif" font-size="10.00">_delay_ms</text>
</a>
</g>
</g>
<!-- Node1&#45;&gt;Node4 -->
<g id="edge3_Node000001_Node000004" class="edge">
<title>Node1&#45;&gt;Node4</title>
<g id="a_edge3_Node000001_Node000004"><a xlink:title=" ">
<path fill="none" stroke="#63b8ff" d="M56.68,-252.16C67.6,-275.46 97.38,-333.3 138.25,-367 139.21,-367.79 140.2,-368.57 141.22,-369.32"/>
<polygon fill="#63b8ff" stroke="#63b8ff" points="139.32,-372.26 149.63,-374.72 143.11,-366.37 139.32,-372.26"/>
</a>
</g>
</g>
<!-- Node5 -->
<g id="Node000005" class="node">
<title>Node5</title>
<g id="a_Node000005"><a xlink:href="group__fm24clxx__interface__driver.html#gac6d6fef67eaeec6f08ebaebe36c4c032" target="_top" xlink:title="interface iic bus deinit">
<polygon fill="white" stroke="#666666" points="245.75,-358 147.25,-358 147.25,-326 245.75,-326 245.75,-358"/>
<text xml:space="preserve" text-anchor="start" x="155.25" y="-344.5" font-family="Helvetica,sans-Serif" font-size="10.00">fm24clxx_interface</text>
<text xml:space="preserve" text-anchor="middle" x="196.5" y="-332.5" font-family="Helvetica,sans-Serif" font-size="10.00">_iic_deinit</text>
</a>
</g>
</g>
<!-- Node1&#45;&gt;Node5 -->
<g id="edge4_Node000001_Node000005" class="edge">
<title>Node1&#45;&gt;Node5</title>
<g id="a_edge4_Node000001_Node000005"><a xlink:title=" ">
<path fill="none" stroke="#63b8ff" d="M61.91,-252.34C77.09,-267.94 107.76,-297.71 138.25,-317 140.07,-318.15 141.96,-319.28 143.88,-320.37"/>
<polygon fill="#63b8ff" stroke="#63b8ff" points="141.94,-323.3 152.42,-324.86 145.2,-317.11 141.94,-323.3"/>
</a>
</g>
</g>
<!-- Node6 -->
<g id="Node000006" class="node">
<title>Node6</title>
<g id="a_Node000006"><a xlink:href="group__fm24clxx__interface__driver.html#gac2de7cb9b55ef3a2961a21efff0fad7f" target="_top" xlink:title="interface iic bus init">
<polygon fill="white" stroke="#666666" points="245.75,-308 147.25,-308 147.25,-276 245.75,-276 245.75,-308"/>
<text xml:space="preserve" text-anchor="start" x="155.25" y="-294.5" font-family="Helvetica,sans-Serif" font-size="10.00">fm24clxx_interface</text>
<text xml:space="preserve" text-anchor="middle" x="196.5" y="-282.5" font-family="Helvetica,sans-Serif" font-size="10.00">_iic_init</text>
</a>
</g>
</g>
<!-- Node1&#45;&gt;Node6 -->
<g id="edge5_Node000001_Node000006" class="edge">
<title>Node1&#45;&gt;Node6</title>
<g id="a_edge5_Node000001_Node000006"><a xlink:title=" ">
<path fill="none" stroke="#63b8ff" d="M82.18,-252.48C98.25,-258.09 118.59,-265.18 137.59,-271.8"/>
<polygon fill="#63b8ff" stroke="#63b8ff" points="136.24,-275.04 146.84,-275.03 138.55,-268.43 136.24,-275.04"/>
</a>
</g>
</g>
<!-- Node7 -->
<g id="Node000007" class="node">
<title>Node7</title>
<g id="a_Node000007"><a xlink:href="group__fm24clxx__interface__driver.html#ga76c4a4b57ec5d75741e56d25f105120f" target="_top" xlink:title="interface iic bus read">
<polygon fill="white" stroke="#666666" points="245.75,-258 147.25,-258 147.25,-226 245.75,-226 245.75,-258"/>
<text xml:space="preserve" text-anchor="start" x="155.25" y="-244.5" font-family="Helvetica,sans-Serif" font-size="10.00">fm24clxx_interface</text>
<text xml:space="preserve" text-anchor="middle" x="196.5" y="-232.5" font-family="Helvetica,sans-Serif" font-size="10.00">_iic_read</text>
</a>
</g>
</g>
<!-- Node1&#45;&gt;Node7 -->
<g id="edge6_Node000001_Node000007" class="edge">
<title>Node1&#45;&gt;Node7</title>
<g id="a_edge6_Node000001_Node000007"><a xlink:title=" ">
<path fill="none" stroke="#63b8ff" d="M102.67,-242C113.32,-242 124.66,-242 135.62,-242"/>
<polygon fill="#63b8ff" stroke="#63b8ff" points="135.34,-245.5 145.34,-242 135.34,-238.5 135.34,-245.5"/>
</a>
</g>
</g>
<!-- Node8 -->
<g id="Node000008" class="node">
<title>Node8</title>
<g id="a_Node000008"><a xlink:href="group__fm24clxx__interface__driver.html#gaa96e71d658b4f57b0df4f89e346396c4" target="_top" xlink:title="interface iic bus read with 16 bits register address">
<polygon fill="white" stroke="#666666" points="249.12,-208 143.88,-208 143.88,-176 249.12,-176 249.12,-208"/>
<text xml:space="preserve" text-anchor="start" x="151.88" y="-194.5" font-family="Helvetica,sans-Serif" font-size="10.00">fm24clxx_interface</text>
<text xml:space="preserve" text-anchor="middle" x="196.5" y="-182.5" font-family="Helvetica,sans-Serif" font-size="10.00">_iic_read_address16</text>
</a>
</g>
</g>
<!-- Node1&#45;&gt;Node8 -->
<g id="edge7_Node000001_Node000008" class="edge">
<title>Node1&#45;&gt;Node8</title>
<g id="a_edge7_Node000001_Node000008"><a xlink:title=" ">
<path fill="none" stroke="#63b8ff" d="M82.18,-231.52C98.25,-225.91 118.59,-218.82 137.59,-212.2"/>
<polygon fill="#63b8ff" stroke="#63b8ff" points="138.55,-215.57 146.84,-208.97 136.24,-208.96 138.55,-215.57"/>
</a>
</g>
</g>
<!-- Node9 -->
<g id="Node000009" class="node">
<title>Node9</title>
<g id="a_Node000009"><a xlink:href="group__fm24clxx__interface__driver.html#ga25098b284bb6870b1fb89aaa6d3a2a19" target="_top" xlink:title="interface iic bus write">
<polygon fill="white" stroke="#666666" points="245.75,-158 147.25,-158 147.25,-126 245.75,-126 245.75,-158"/>
<text xml:space="preserve" text-anchor="start" x="155.25" y="-144.5" font-family="Helvetica,sans-Serif" font-size="10.00">fm24clxx_interface</text>
<text xml:space="preserve" text-anchor="middle" x="196.5" y="-132.5" font-family="Helvetica,sans-Serif" font-size="10.00">_iic_write</text>
</a>
</g>
</g>
<!-- Node1&#45;&gt;Node9 -->
<g id="edge8_Node000001_Node000009" class="edge">
<title>Node1&#45;&gt;Node9</title>
<g id="a_edge8_Node000001_Node000009"><a xlink:title=" ">
<path fill="none" stroke="#63b8ff" d="M61.91,-231.66C77.09,-216.06 107.76,-186.29 138.25,-167 140.07,-165.85 141.96,-164.72 143.88,-163.63"/>
<polygon fill="#63b8ff" stroke="#63b8ff" points="145.2,-166.89 152.42,-159.14 141.94,-160.7 145.2,-166.89"/>
</a>
</g>
</g>
<!-- Node10 -->
<g id="Node000010" class="node">
<title>Node10</title>
<g id="a_Node000010"><a xlink:href="group__fm24clxx__interface__driver.html#ga9ef6ca2f95b8583a90645add7ac862f1" target="_top" xlink:title="interface iic bus write with 16 bits register address">
<polygon fill="white" stroke="#666666" points="250.25,-108 142.75,-108 142.75,-76 250.25,-76 250.25,-108"/>
<text xml:space="preserve" text-anchor="start" x="150.75" y="-94.5" font-family="Helvetica,sans-Serif" font-size="10.00">fm24clxx_interface</text>
<text xml:space="preserve" text-anchor="middle" x="196.5" y="-82.5" font-family="Helvetica,sans-Serif" font-size="10.00">_iic_write_address16</text>
</a>
</g>
</g>
<!-- Node1&#45;&gt;Node10 -->
<g id="edge9_Node000001_Node000010" class="edge">
<title>Node1&#45;&gt;Node10</title>
<g id="a_edge9_Node000001_Node000010"><a xlink:title=" ">
<path fill="none" stroke="#63b8ff" d="M56.68,-231.84C67.6,-208.54 97.38,-150.7 138.25,-117 139.21,-116.21 140.2,-115.43 141.22,-114.68"/>
<polygon fill="#63b8ff" stroke="#63b8ff" points="143.11,-117.63 149.63,-109.28 139.32,-111.74 143.11,-117.63"/>
</a>
</g>
</g>
<!-- Node11 -->
<g id="Node000011" class="node">
<title>Node11</title>
<g id="a_Node000011"><a xlink:href="group__fm24clxx__base__driver.html#ga08e0c37b8a86e79689a65ea55fbc47ec" target="_top" xlink:title="set the chip address pin">
<polygon fill="white" stroke="#666666" points="254.75,-58 138.25,-58 138.25,-38 254.75,-38 254.75,-58"/>
<text xml:space="preserve" text-anchor="middle" x="196.5" y="-44.5" font-family="Helvetica,sans-Serif" font-size="10.00">fm24clxx_set_addr_pin</text>
</a>
</g>
</g>
<!-- Node1&#45;&gt;Node11 -->
<g id="edge10_Node000001_Node000011" class="edge">
<title>Node1&#45;&gt;Node11</title>
<g id="a_edge10_Node000001_Node000011"><a xlink:title=" ">
<path fill="none" stroke="#63b8ff" d="M54.28,-231.61C61.03,-201.55 84.65,-113.73 138.25,-67 139.36,-66.03 140.52,-65.11 141.72,-64.24"/>
<polygon fill="#63b8ff" stroke="#63b8ff" points="143.47,-67.28 150.31,-59.19 139.92,-61.24 143.47,-67.28"/>
</a>
</g>
</g>
<!-- Node12 -->
<g id="Node000012" class="node">
<title>Node12</title>
<g id="a_Node000012"><a xlink:href="group__fm24clxx__base__driver.html#gaa1b4897a4d8e860bb559ff86bd54fe99" target="_top" xlink:title="set the chip type">
<polygon fill="white" stroke="#666666" points="245.75,-20 147.25,-20 147.25,0 245.75,0 245.75,-20"/>
<text xml:space="preserve" text-anchor="middle" x="196.5" y="-6.5" font-family="Helvetica,sans-Serif" font-size="10.00">fm24clxx_set_type</text>
</a>
</g>
</g>
<!-- Node1&#45;&gt;Node12 -->
<g id="edge11_Node000001_Node000012" class="edge">
<title>Node1&#45;&gt;Node12</title>
<g id="a_edge11_Node000001_Node000012"><a xlink:title=" ">
<path fill="none" stroke="#63b8ff" d="M53.23,-231.87C57.47,-198.03 75.71,-87.68 138.25,-29 139.17,-28.14 140.12,-27.32 141.11,-26.54"/>
<polygon fill="#63b8ff" stroke="#63b8ff" points="142.92,-29.53 149.51,-21.24 139.19,-23.61 142.92,-29.53"/>
</a>
</g>
</g>
</g>
</svg>
